# xmcd CD database file
#
# Track frame offsets:
#	150
#	18596
#	37659
#	62259
#	81003
#	104248
#	124887
#	149151
#	165004
#	182643
#	200056
#	219101
#
# Disc length: 3201 seconds
#
# Revision: 1
# Processed by: cddbd v1.5.2PL0 Copyright (c) Steve Scherf et al.
# Submitted via: CDex 1.70beta3
#
DISCID=a00c7f0c
DTITLE=Two Fires - Burning Bright
DYEAR=2010
DGENRE=Melodious Hard Rock
TTITLE0=Is It Any Wonder 
TTITLE1=Lost The Song 
TTITLE2=Some Things Are Better Left Unsaid 
TTITLE3=Epic In The Night 
TTITLE4=Shattered Without You 
TTITLE5=Burning Bright 
TTITLE6=Hold On To Your Dreams 
TTITLE7=Answer In My Prayer 
TTITLE8=Still In Love 
TTITLE9=Relentless
TTITLE10=All For One 
TTITLE11=Shattered Without You (Acoustic Re-Mix) 
EXTD=YEAR: 2010
EXTT0=
EXTT1=
EXTT2=
EXTT3=
EXTT4=
EXTT5=
EXTT6=
EXTT7=
EXTT8=
EXTT9=
EXTT10=
EXTT11=
PLAYORDER=
